inDegrees=no
num_controls=7
num_derivatives=13
num_iterations=104
num_multipliers=7
num_parameters=0
num_slacks=7
num_states=26
objective=0.444912
objective_accelerations=0.058371
objective_balance=0.003603
objective_effort=0.023399
objective_height=0.354051
objective_ligament=0.005487
solver_duration=1507.320228
status=Solve_Succeeded
success=true
DataType=double
version=3
OpenSimVersion=4.5
endheader
time	/jointset/ground_pelvis/pelvis_tilt/value	/jointset/ground_pelvis/pelvis_tx/value	/jointset/ground_pelvis/pelvis_ty/value	/jointset/hip_l/hip_flexion_l/value	/jointset/hip_l/hip_adduction_l/value	/jointset/hip_l/hip_rotation_l/value	/jointset/back/lumbar_extension/value	/jointset/patellofemoral_l/patellar_flexion_l/value	/jointset/knee_l/knee_flexion_l/value	/jointset/knee_l/knee_adduction_l/value	/jointset/knee_l/knee_rotation_l/value	/jointset/ankle_l/ankle_angle_l/value	/jointset/subtalar_l/subtalar_angle_l/value	/jointset/ground_pelvis/pelvis_tilt/speed	/jointset/ground_pelvis/pelvis_tx/speed	/jointset/ground_pelvis/pelvis_ty/speed	/jointset/hip_l/hip_flexion_l/speed	/jointset/hip_l/hip_adduction_l/speed	/jointset/hip_l/hip_rotation_l/speed	/jointset/back/lumbar_extension/speed	/jointset/patellofemoral_l/patellar_flexion_l/speed	/jointset/knee_l/knee_flexion_l/speed	/jointset/knee_l/knee_adduction_l/speed	/jointset/knee_l/knee_rotation_l/speed	/jointset/ankle_l/ankle_angle_l/speed	/jointset/subtalar_l/subtalar_angle_l/speed	/forceset/tau_hip_flexion_l	/forceset/tau_hip_adduction_l	/forceset/tau_hip_rotation_l	/forceset/tau_knee_flexion_l	/forceset/tau_ankle_angle_l	/forceset/tau_subtalar_angle_l	/forceset/tau_lumbar_extension	lambda_cid13_p0	lambda_cid13_p1	lambda_cid13_p2	lambda_cid13_p3	lambda_cid13_p4	lambda_cid13_p5	lambda_cid14_p0	/jointset/ground_pelvis/pelvis_tilt/accel	/jointset/ground_pelvis/pelvis_tx/accel	/jointset/ground_pelvis/pelvis_ty/accel	/jointset/hip_l/hip_flexion_l/accel	/jointset/hip_l/hip_adduction_l/accel	/jointset/hip_l/hip_rotation_l/accel	/jointset/back/lumbar_extension/accel	/jointset/patellofemoral_l/patellar_flexion_l/accel	/jointset/knee_l/knee_flexion_l/accel	/jointset/knee_l/knee_adduction_l/accel	/jointset/knee_l/knee_rotation_l/accel	/jointset/ankle_l/ankle_angle_l/accel	/jointset/subtalar_l/subtalar_angle_l/accel	gamma_cid13_p0	gamma_cid13_p1	gamma_cid13_p2	gamma_cid13_p3	gamma_cid13_p4	gamma_cid13_p5	gamma_cid14_p0
1	-0.560168910313124	-0.08438315748937932	0.5672579937696779	1.865045804638319	-0.4666739015207992	0.01599764078770914	-0.2617930633472736	1.397957106920474	1.397957106920459	-0.07842167156498765	-0.1745286251403311	0.2165873130869861	-0.01124347607016838	-0.01870181509759885	0.01069436416937085	0.001337299048056455	0.002877061799619733	-0.002560267050951314	0.005889949156617801	-3.877974110472467e-05	0.005395943977527333	0.005395943977525281	-0.005837396243982595	-6.162204555041083e-05	0.02155087557176149	0.009237653376573564	-0.3409339373133073	0.0115497322020495	0.0004249710737030168	-0.3016014157667889	0.03660283227026849	0.03186111155191471	0.2894538094186831	-28.24467318640956	-9.556168534444165	1.946416765211461	8.090846328022238	-644.3642093876038	-47.86386381432535	-1.144860218330836	1.547950938224636	0.23186987094144	1.999214931039599	-6.910233318613912	-0.08799428646503413	-2.343360618562584	-0.02206037955553198	-5.3323851086197	-5.332385108619756	-0.6179393071167644	-0.0289358098553303	-0.6516440773240613	-0.4569106201640789	5.281800523730007e-09	1.867624762296232e-08	-1.698000670787305e-08	2.599011655571664e-09	-1.155070472393815e-09	1.977419692724037e-08	3.312653180413e-09
1.01	-0.560279461027883	-0.08426467935433352	0.5673711808220115	1.864730354494041	-0.466702877156239	0.01593822410447341	-0.2617935114025123	1.397744560803821	1.397744560803711	-0.07850820228337414	-0.174529364864584	0.2167703936238916	-0.0111725273552721	-0.003406062997533114	0.01300340823826783	0.0212961572666499	-0.06595963929140813	-0.003232687389869805	-0.01777174233669643	-4.867519067700589e-05	-0.0479028756333985	-0.04790287563338413	-0.01146844283810674	-8.729677195486112e-05	0.01505789305156547	0.004950252180064984	-0.3408988946355282	0.01166550352047596	0.0004098070855979366	-0.3013898933965787	0.03634746596314532	0.03188971638439683	0.2894289208617934	-28.31405509176671	-9.560453304999236	1.951680182458585	8.054418905779198	-644.2334399415557	-47.87699908402247	-1.148902439266124	1.520725849599667	0.2307439934094815	1.993625828592474	-6.869272251775995	-0.05654018841196713	-2.37734748470301	0.009869289739744175	-5.328284725954676	-5.328284725952154	-0.5356452130950368	0.01047766863148801	-0.6492257879690367	-0.4149345391778785	-3.534635697055309e-09	8.190468786683557e-09	2.333249484359161e-08	2.54436744718447e-09	-1.147513354073485e-08	7.250252583458327e-08	-9.42229574725218e-09
1.02	-0.5602369865209013	-0.08412304631488961	0.5676838373687961	1.863726760589366	-0.4667385118512294	0.01564223569230758	-0.2617939937287677	1.396999095623334	1.396999095623129	-0.07865103504320835	-0.1745303891415565	0.2168883242458747	-0.01114450858629768	0.01190322925061932	0.01532534504899048	0.04123119793817928	-0.1347516902795868	-0.003892078961056162	-0.04142439662949735	-4.563394433532415e-05	-0.1011878687893505	-0.1011878687893185	-0.0170978045336232	-0.0001185325917794524	0.008520892587303078	0.0006516641922115367	-0.3408638519577472	0.0117812748389018	0.0003946430974982182	-0.3011783710263684	0.0360920996560217	0.03191832121687779	0.2894040323049057	-28.38915442694827	-9.563561523311231	1.956555658223712	8.040676718457396	-644.182572381044	-47.86793089087084	-1.162411303816926	1.550658967841962	0.2344484193065784	1.994451421626788	-6.901303298044072	-0.08538853291859645	-2.341553178459909	-0.01947304037274126	-5.329619817624931	-5.329619817624763	-0.6176023273952268	-0.03004802853933543	-0.6604476661373258	-0.4591479784330331	-1.184250756809011e-08	-7.716989567437879e-10	6.429510527923597e-08	3.235053626227093e-09	-2.151331448142645e-08	1.23734765733241e-07	-2.155451002690056e-08
1.03	-0.5600413235351159	-0.08395809259146891	0.5681956492216984	1.862035625700147	-0.4667805770357226	0.0151098855959187	-0.2617943901096832	1.39572093505103	1.395720935050956	-0.0788501161426878	-0.1745316746571391	0.2169405978138886	-0.01115944216706384	0.02723375269956546	0.01767114428386869	0.06111964025392465	-0.2034516732372336	-0.004507984739937058	-0.06503156692786709	-3.171850752026604e-05	-0.1544336699283844	-0.1544336699283764	-0.02271355501013482	-0.0001298663555838302	0.001920015857639926	-0.003629958806852621	-0.3404947288926257	0.01194202445600566	0.0003497185530095172	-0.3008784235109078	0.03598596238382554	0.03201202318899651	0.2891510025184093	-28.39603941740218	-9.615184371340598	1.978645204879571	7.93060549702678	-643.8316495588004	-47.92847469773353	-1.185594837195976	1.524903134640394	0.2355081637887907	1.984304407759977	-6.850807873719851	-0.04775424112466502	-2.368211339966133	0.01211239539771807	-5.320467090992788	-5.320467090996497	-0.5328453144186436	0.01465685759663339	-0.6619786063950591	-0.4114170454677251	-2.014519000698458e-08	-9.718319648203253e-09	1.052643494790046e-07	3.933345217386351e-09	-3.154861907387673e-08	1.749517394175244e-07	-3.368057395299774e-08
